<svg xmlns="http://www.w3.org/2000/svg" viewBox="0 0 219.18 272.75"><defs><style>.cls-1{fill:#333;}.cls-2{font-size:27.29px;font-family:SofiaPro-Bold, Sofia Pro;font-weight:700;letter-spacing:0.07em;}.cls-2,.cls-5{fill:#fff;}.cls-3{letter-spacing:0.01em;}.cls-4{letter-spacing:0.08em;}</style></defs><g id="Layer_2" data-name="Layer 2"><g id="Layer_1-2" data-name="Layer 1"><rect class="cls-1" width="219.18" height="272.75"/><text class="cls-2" transform="translate(21.33 217.58)">KINGSO<tspan class="cls-3" x="113.83" y="0">L</tspan><tspan class="cls-4" x="127.83" y="0">VER</tspan><tspan x="0" y="25.83">SMITH</tspan></text><rect class="cls-5" x="-34.73" y="94.89" width="145.03" height="28.02" transform="translate(146.68 71.12) rotate(90)"/><path class="cls-5" d="M111.31,149.16l27,6.67c15,3.87,30.56,11,34.89,25.59h28.29c-3.3-25.52-23.8-42.42-56.21-50.45L118,124.3c-27.89-6.67-30.32-21.83-30.32-29.1,0-20.62,19.41-33.35,40.32-33.35.77,0,1.52,0,2.28.06V36.42c-.46,0-.91,0-1.37,0-36.38,0-68.81,23-68.81,59.11C60.08,112.48,67.05,138.55,111.31,149.16Z"/></g></g></svg>